#!OML:ASF E:\Steps\Project 1\Capture day 1\Session 2\Subject.ASF
:FULLY-SPECIFIED
:DEGREES
115
root 16.3071 16.3561 21.2348 -155.109 -1.52027 177.411
lowerback -29.7554 -2.13633 -7.5913
upperback -0.939769 -0.83826 -0.0104155
thorax 14.7035 -1.14223 3.71564
lowerneck -5.86219 -0.656523 -0.198982
upperneck 8.60446 -1.29125 3.04201
head 3.87503 -0.568284 0.974815
rclavicle 6.63444e-015 -1.39149e-015
rhumerus -36.2795 -18.6208 -79.8536
rradius 31.7458
rwrist -6.89086
rhand -17.2497 -81.7642
rfingers 7.12502
rthumb 8.99437 -248.448
lclavicle 6.63444e-015 -1.39149e-015
lhumerus -30.5882 7.16075 80.9121
lradius 21.55
lwrist -4.12508
lhand -22.5214 -13.3772
lfingers 7.12502
lthumb 3.90526 16.5668
rfemur -22.8225 6.95887 19.0074
rtibia 9.13412
rfoot -18.8336 -3.50403
rtoes -18.0782
lfemur -23.7542 -8.06598 -21.3288
ltibia 9.11807
lfoot -6.58401 -4.24078
ltoes -32.0987
116
root 16.3109 16.3592 21.2481 -155.07 -1.88438 177.398
lowerback -29.5497 -2.16698 -7.47014
upperback -0.996403 -0.935902 -0.0359947
thorax 14.5543 -1.17034 3.5876
lowerneck -5.85465 -0.460216 -0.365745
upperneck 8.56936 -1.03548 3.29241
head 3.86058 -0.437324 1.10128
rclavicle -9.83984e-015 0
rhumerus -36.2568 -18.6841 -79.9096
rradius 31.7026
rwrist -6.8138
rhand -17.2684 -81.9237
rfingers 7.12502
rthumb 8.97639 -248.287
lclavicle -9.83984e-015 0
lhumerus -30.5967 6.93451 80.9539
lradius 21.6104
lwrist -3.9696
lhand -22.5803 -13.5121
lfingers 7.12502
lthumb 3.84844 16.4329
rfemur -22.8096 6.6317 19.1454
rtibia 9.1047
rfoot -18.8692 -3.49403
rtoes -17.9433
lfemur -23.9931 -8.09112 -21.3337
ltibia 9.44854
lfoot -6.63201 -4.58718
ltoes -32.0836
117
root 16.3234 16.359 21.2516 -154.956 -1.81054 177.305
lowerback -29.6638 -2.18512 -7.64809
upperback -1.02827 -0.900332 -0.0475845
thorax 14.5637 -1.16994 3.68153
lowerneck -5.59869 -0.156638 -0.696856
upperneck 8.48238 -0.628204 3.62424
head 3.77601 -0.237503 1.29042
rclavicle 5.96354e-015 -1.35174e-014
rhumerus -36.3684 -18.6816 -79.8881
rradius 31.7888
rwrist -6.54987
rhand -17.2662 -82.1653
rfingers 7.12502
rthumb 8.9785 -248.046
lclavicle 5.96354e-015 -1.35174e-014
lhumerus -30.6389 6.97738 80.9567
lradius 21.6422
lwrist -3.97568
lhand -22.6408 -13.6286
lfingers 7.12502
lthumb 3.78999 16.3174
rfemur -23.0139 6.86562 18.9868
rtibia 9.16122
rfoot -18.9301 -3.72552
rtoes -17.9223
lfemur -24.1879 -8.09108 -21.3344
ltibia 9.52215
lfoot -6.6834 -4.51837
ltoes -32.5158
118
root 16.3324 16.3539 21.261 -154.777 -1.91119 177.336
lowerback -29.8552 -2.19416 -7.59433
upperback -0.99208 -0.91053 -0.0626364
thorax 14.6939 -1.17579 3.62774
lowerneck -5.5603 0.0119212 -0.692444
upperneck 8.59685 -0.410764 3.62559
head 3.80313 -0.131235 1.30178
rclavicle -2.93207e-015 7.95139e-016
rhumerus -36.2868 -18.7035 -79.9925
rradius 31.8751
rwrist -6.42094
rhand -17.2719 -82.3746
rfingers 7.12502
rthumb 8.97295 -247.836
lclavicle -2.93207e-015 7.95139e-016
lhumerus -30.5108 6.94577 80.9467
lradius 21.7402
lwrist -3.99766
lhand -22.695 -13.5589
lfingers 7.12502
lthumb 3.73759 16.3881
rfemur -23.2911 6.79732 19.0595
rtibia 9.26476
rfoot -19.0358 -3.8088
rtoes -18.3073
lfemur -24.4974 -8.22034 -21.1823
ltibia 9.64377
lfoot -6.81239 -4.47709
ltoes -33.1972
119
root 16.3445 16.3568 21.2608 -154.886 -1.72405 177.198
lowerback -29.8996 -2.17859 -7.80052
upperback -0.837545 -0.781014 -0.118374
thorax 14.8788 -1.13299 3.73039
lowerneck -5.65935 0.088935 -0.647972
upperneck 8.68122 -0.308576 3.56657
head 3.84911 -0.0800603 1.28074
rclavicle -2.78299e-015 -1.98785e-016
rhumerus -36.1248 -18.625 -80.1326
rradius 31.9853
rwrist -6.4385
rhand -17.2613 -82.6172
rfingers 7.12502
rthumb 8.98318 -247.594
lclavicle -2.78299e-015 -1.98785e-016
lhumerus -30.348 6.83129 80.9756
lradius 21.9141
lwrist -3.94218
lhand -22.5988 -13.3809
lfingers 7.12502
lthumb 3.83054 16.5644
rfemur -23.267 7.04752 18.8707
rtibia 9.37109
rfoot -18.9809 -3.94629
rtoes -18.5013
lfemur -24.3548 -8.21391 -21.3132
ltibia 9.62876
lfoot -6.83303 -4.36342
ltoes -32.841
120
root 16.3534 16.3532 21.268 -154.92 -1.87025 177.27
lowerback -29.843 -2.172 -7.70918
upperback -0.781076 -0.796128 -0.0971383
thorax 14.9228 -1.13172 3.70085
lowerneck -5.70314 0.122577 -0.573501
upperneck 8.86544 -0.272966 3.47569
head 3.92102 -0.0642321 1.2409
rclavicle -5.39203e-015 -5.56597e-015
rhumerus -36.1422 -18.4848 -80.2126
rradius 32.2285
rwrist -6.36435
rhand -17.2251 -82.9476
rfingers 7.12502
rthumb 9.01812 -247.265
lclavicle -5.39203e-015 -5.56597e-015
lhumerus -30.2568 6.79095 80.9864
lradius 22.025
lwrist -3.97231
lhand -22.5725 -13.2919
lfingers 7.12502
lthumb 3.85596 16.6529
rfemur -23.2914 7.14388 18.9952
rtibia 9.4568
rfoot -18.9458 -4.03488
rtoes -17.6275
lfemur -24.3996 -8.25444 -21.1646
ltibia 9.69781
lfoot -6.79105 -4.40085
ltoes -32.5907
121
root 16.3599 16.3535 21.2723 -155.125 -2.03993 177.329
lowerback -29.6384 -2.1088 -7.53055
upperback -0.709157 -0.761409 -0.155692
thorax 14.9097 -1.09589 3.56018
lowerneck -5.67992 0.245389 -0.508983
upperneck 8.98363 -0.122201 3.46473
head 3.95434 0.01038 1.23441
rclavicle -3.62782e-015 -9.34288e-015
rhumerus -36.2463 -18.3206 -80.3594
rradius 32.5003
rwrist -6.33256
rhand -17.1892 -83.284
rfingers 7.12502
rthumb 9.05281 -246.93
lclavicle -3.62782e-015 -9.34288e-015
lhumerus -30.2181 6.50588 80.9943
lradius 22.1072
lwrist -3.85473
lhand -22.8589 -13.284
lfingers 7.12502
lthumb 3.57934 16.6656
rfemur -23.0572 7.11165 19.1442
rtibia 9.45231
rfoot -18.9995 -4.08892
rtoes -17.3545
lfemur -24.226 -8.37996 -21.0412
ltibia 9.74252
lfoot -6.95644 -4.40068
ltoes -33.2137
122
root 16.3663 16.3542 21.2752 -155.317 -2.09801 177.296
lowerback -29.4326 -2.00224 -7.52716
upperback -0.645432 -0.609593 -0.243057
thorax 14.8712 -1.01982 3.52869
lowerneck -5.66777 0.504023 -0.702797
upperneck 8.81996 0.222173 3.78022
head 3.88764 0.187876 1.39072
rclavicle -1.2921e-015 5.56597e-015
rhumerus -36.2831 -18.3253 -80.4709
rradius 32.6281
rwrist -6.45536
rhand -17.1802 -83.5024
rfingers 7.12502
rthumb 9.06149 -246.712
lclavicle -1.2921e-015 5.56597e-015
lhumerus -30.1247 6.19351 81.0305
lradius 22.1371
lwrist -3.68036
lhand -22.9004 -13.3721
lfingers 7.12502
lthumb 3.53927 16.5782
rfemur -22.8135 6.92648 19.2262
rtibia 9.4202
rfoot -19.0395 -4.03643
rtoes -18.2871
lfemur -24.0146 -8.35966 -21.0879
ltibia 9.7571
lfoot -7.03866 -4.52095
ltoes -32.6507
123
root 16.3788 16.3508 21.2947 -155.047 -2.37909 177.17
lowerback -29.4532 -2.07113 -7.68906
upperback -0.694543 -0.651276 -0.263525
thorax 14.826 -1.04952 3.57554
lowerneck -5.75364 0.702346 -0.826494
upperneck 8.76744 0.486306 3.97161
head 3.87982 0.32412 1.49093
rclavicle -1.98785e-015 2.18663e-015
rhumerus -36.1072 -18.4808 -80.5606
rradius 32.5102
rwrist -6.65773
rhand -17.2094 -83.5468
rfingers 7.12502
rthumb 9.0333 -246.667
lclavicle -1.98785e-015 2.18663e-015
lhumerus -29.987 6.27491 81.0168
lradius 22.1578
lwrist -3.75146
lhand -22.6654 -13.3007
lfingers 7.12502
lthumb 3.76625 16.6457
rfemur -23.1754 6.76869 19.175
rtibia 9.51259
rfoot -19.0292 -4.25202
rtoes -18.4739
lfemur -24.5588 -8.34353 -21.1103
ltibia 10.057
lfoot -6.92321 -4.8799
ltoes -31.6705
